0
SECTION
2
HEADER
9
$ACADVER
1
AC1015
9
$INSUNITS
70
2
9
$MEASUREMENT
70
0
0
ENDSEC
0
SECTION
2
TABLES
0
TABLE
2
LAYER
70
2
0
LAYER
2
PAV-ASPH
62
7
0
LAYER
2
MILL
62
1
0
ENDTAB
0
ENDSEC
0
SECTION
2
ENTITIES
0
LWPOLYLINE
8
PAV-ASPH
90
4
70
1
10
0
20
0
10
100
20
0
10
100
20
50
10
0
20
50
0
LWPOLYLINE
8
PAV-ASPH
90
4
70
1
10
0
20
0
10
100
20
0
10
100
20
50
10
0
20
50
0
CIRCLE
8
PAV-ASPH
10
200
20
200
40
10
0
LWPOLYLINE
8
PAV-ASPH
90
3
70
0
10
0
20
80
10
30
20
80
10
60
20
80
0
TEXT
8
PAV-ASPH
10
0
20
70
1
PAVING PLAN PAV-ASPH AREA
0
ENDSEC
0
EOF
